<svg width="144" height="153" viewBox="0 0 144 153" fill="none" xmlns="http://www.w3.org/2000/svg">
<path d="M23.593 58.7675L24.5 56.5L27.4261 49.1848L27.7831 52.8026C27.9265 54.2552 28.3347 55.6693 28.9875 56.9749C29.6565 58.313 30.5709 59.5137 31.6829 60.5146L32.6081 61.3473C34.1702 62.7531 36.1012 63.6835 38.1742 64.029C40.0273 64.3378 41.9287 64.1683 43.6979 63.5364L46.2756 62.6158C47.4231 62.206 48.5339 61.6996 49.5959 61.1023L51.7321 59.9007C54.5672 58.3059 57.2018 56.3783 59.5798 54.1588L61.977 51.9214C62.988 50.9778 64.118 50.1704 65.3382 49.5196L67.7882 48.2129C69.8484 47.1141 72.2549 46.8585 74.5 47.5C77.4746 48.822 80.1804 50.6803 82.4821 52.9821L83.0022 53.5021C85.3189 55.8189 87.994 57.7469 90.9244 59.2122L95.8699 61.6849C96.9538 62.2269 98.09 62.6573 99.261 62.9695L101.785 63.6425C103.872 64.1992 106.084 64.0664 108.09 63.264L108.562 63.0752C109.511 62.6957 110.373 62.1273 111.095 61.4047C113.172 59.3282 113.855 56.2357 112.847 53.4776L97.5 11.5L119.299 53.7637C121.074 57.2046 122 61.0201 122 64.8918C122 66.6256 121.814 68.3544 121.446 70.0486L121.273 70.8439C120.111 76.191 117.59 81.1484 113.955 85.2382L113.458 85.7975C112.155 87.2632 110.73 88.6158 109.199 89.8408L106.471 92.0234C103.172 94.6623 99.5319 96.8434 95.6491 98.5075C92.5587 99.8319 89.3347 100.82 86.0329 101.455L84.1717 101.813C80.0713 102.602 75.8927 102.908 71.7211 102.727C68.2486 102.576 64.799 102.088 61.4211 101.269L53.6193 99.3773C51.2098 98.7933 48.8478 98.0286 46.5532 97.0899L45.4112 96.6227C41.1658 94.886 37.2342 92.4645 33.7729 89.4546L31.0711 87.1053C28.7133 85.055 26.7809 82.5618 25.3836 79.7671C24.7955 78.591 24.3057 77.3683 23.919 76.1116L23.2379 73.8982C22.7472 72.3033 22.4164 70.6636 22.2503 69.0032L22.2072 68.5716C22.0694 67.194 22.0694 65.806 22.2072 64.4283C22.4014 62.4857 22.8679 60.5801 23.593 58.7675Z" fill="#F8F9FA"/>
<path d="M27.5 49L27.4261 49.1848M27.4261 49.1848L24.5 56.5L23.593 58.7675C22.8679 60.5801 22.4014 62.4857 22.2072 64.4283V64.4283C22.0694 65.806 22.0694 67.194 22.2072 68.5716L22.2503 69.0032C22.4164 70.6636 22.7472 72.3033 23.2379 73.8982L23.919 76.1116C24.3057 77.3683 24.7955 78.591 25.3836 79.7671V79.7671C26.7809 82.5618 28.7133 85.055 31.0711 87.1053L33.7729 89.4546C37.2342 92.4645 41.1658 94.886 45.4112 96.6227L46.5532 97.0899C48.8478 98.0286 51.2098 98.7932 53.6193 99.3774L61.4211 101.269C64.799 102.088 68.2486 102.576 71.7211 102.727V102.727C75.8927 102.908 80.0713 102.602 84.1717 101.813L86.0329 101.455C89.3347 100.82 92.5587 99.832 95.6491 98.5075V98.5075C99.5319 96.8434 103.172 94.6623 106.471 92.0234L109.199 89.8408C110.73 88.6158 112.155 87.2631 113.458 85.7975L113.955 85.2382C117.59 81.1484 120.111 76.191 121.273 70.8439L121.446 70.0486C121.814 68.3544 122 66.6256 122 64.8918V64.8918C122 61.0201 121.074 57.2046 119.299 53.7637L97.5 11.5L112.847 53.4776C113.855 56.2357 113.172 59.3282 111.095 61.4047V61.4047C110.373 62.1273 109.511 62.6957 108.562 63.0752L108.09 63.264C106.084 64.0664 103.872 64.1992 101.785 63.6425L99.261 62.9695C98.09 62.6573 96.9538 62.2269 95.8699 61.6849L90.9244 59.2122C87.994 57.7469 85.3189 55.8189 83.0022 53.5021L82.4821 52.9821C80.1804 50.6803 77.4746 48.822 74.5 47.5V47.5V47.5C72.2549 46.8585 69.8484 47.1141 67.7882 48.2129L65.3382 49.5196C64.118 50.1704 62.988 50.9778 61.977 51.9214L59.5798 54.1588C57.2018 56.3783 54.5672 58.3059 51.7321 59.9007L49.5959 61.1023C48.5339 61.6996 47.4231 62.206 46.2756 62.6158L43.6979 63.5364C41.9287 64.1683 40.0273 64.3378 38.1742 64.029V64.029C36.1012 63.6835 34.1702 62.7531 32.6081 61.3473L31.6829 60.5146C30.5709 59.5137 29.6565 58.313 28.9875 56.9749V56.9749C28.3347 55.6693 27.9265 54.2552 27.7831 52.8026L27.4261 49.1848Z" stroke="#1F485C" stroke-width="2"/>
<path d="M31.3311 35.2033L29.0758 41.5591C28.0357 44.4904 27.5889 47.5993 27.7614 50.7049L27.8447 52.2044C27.9474 54.0527 28.3853 55.867 29.1371 57.5586C29.7096 58.8467 30.458 60.0514 31.4668 61.0359C32.1581 61.7106 32.8179 62.3179 33 62.5C33.2901 62.7901 34.1482 63.3046 35.0739 63.7506C36.3122 64.3471 37.6953 64.5 39.0697 64.5C40.6813 64.5 42.2842 64.2647 43.8278 63.8017L46.5 63C50.465 61.6783 54.1479 59.6268 57.3587 56.9511L58.5 56L62.9215 51.5785C63.6382 50.8618 64.4339 50.2288 65.2934 49.6916L65.4148 49.6158C67.1145 48.5535 69.04 47.9055 71.0361 47.724L71.2431 47.7052C72.7339 47.5696 74.2368 47.721 75.6706 48.1512C77.5278 48.7083 79.2177 49.7177 80.5888 51.0888L82.5 53L85.019 55.519C86.6696 57.1696 88.4655 58.6684 90.3848 59.9972L91.7862 60.9674C93.2574 61.9859 94.8386 62.8354 96.5 63.5L97.5825 63.8093C99.1863 64.2675 100.846 64.5 102.514 64.5H102.761C103.586 64.5 104.409 64.4319 105.222 64.2964C106.403 64.0995 107.556 63.7616 108.657 63.2899L109.457 62.9469C110.151 62.6496 110.816 62.2894 111.444 61.8707L112.164 61.3906C113.046 60.8027 113.803 60.046 114.391 59.1641C115.119 58.0714 115.568 56.8167 115.699 55.5099L115.869 53.81C115.956 52.9384 115.966 52.0607 115.899 51.1873L115.8 49.9024C115.601 47.3122 115.06 44.7597 114.191 42.3114L111.906 35.8715C110.638 32.2973 109.06 28.8408 107.19 25.5412L104.96 21.6056C102.671 17.5667 99.655 13.9318 96.1178 10.9252C93.0773 8.3407 89.6285 6.212 85.9507 4.66345L85.5549 4.4968C83.1921 3.50192 80.7274 2.76863 78.2051 2.31001C73.4527 1.44595 68.5733 1.57098 63.8715 2.6773L62.5 3L57.7702 4.80184C53.9476 6.25806 50.3801 8.31132 47.2008 10.8851C43.4338 13.9345 40.2734 17.6646 37.884 21.8812L35.4605 26.158C33.8233 29.0472 32.4416 32.0738 31.3311 35.2033Z" fill="#F39C12" stroke="#1F485C" stroke-width="2"/>
<path d="M39.6778 105.022L39.7726 104.501C40.6683 99.5741 45.833 96.685 50.5 98.5L55.3002 100.194C57.7632 101.063 60.2884 101.745 62.8541 102.234C67.266 103.074 71.7684 103.338 76.2482 103.018L80.9236 102.684C82.6329 102.562 84.317 102.203 85.9275 101.617L96.2249 97.8728C98.4262 97.0723 100.888 97.92 102.129 99.9063C102.375 100.3 102.565 100.727 102.692 101.173L103.076 102.516C103.358 103.503 103.537 104.516 103.61 105.54L104 111C104 114.656 103.614 118.303 102.848 121.878L102.5 123.5L100 132.5L98.5 136.5C97.8772 137.746 97.9339 139.223 98.6504 140.417L99 141L99.9846 142.641C100.322 143.203 100.5 143.846 100.5 144.502C100.5 145.461 100.119 146.381 99.4406 147.059L98.7929 147.707C98.5979 147.902 98.3893 148.083 98.1686 148.249L97.9442 148.417C96.9895 149.133 95.9117 149.668 94.7642 149.996L94.5096 150.069C93.5081 150.355 92.4716 150.5 91.43 150.5H89.0768C88.3598 150.5 87.6438 150.449 86.934 150.348L85.6068 150.158C84.8737 150.053 84.1623 149.831 83.5 149.5C82.8377 149.169 82.2331 148.733 81.7094 148.209L81.5 148C80.8377 147.338 80.0729 146.786 79.2351 146.368L77.5 145.5C72.8857 146.489 68.1143 146.489 63.5 145.5L63.1441 146.212C62.7175 147.065 62.1561 147.844 61.4816 148.518C60.5072 149.493 59.3195 150.227 58.0123 150.663L57.3332 150.889C56.119 151.294 54.8475 151.5 53.5676 151.5H51.2305C50.7441 151.5 50.2584 151.465 49.7769 151.397L49.0201 151.289C47.6976 151.1 46.4498 150.56 45.4065 149.725L45.1416 149.513C44.7164 149.173 44.3463 148.769 44.0442 148.316C43.0775 146.866 42.7977 144.984 43.6696 143.475C43.793 143.262 43.9065 143.093 44 143C44.4 142.6 45.1667 141.5 45.5 141C46.4521 139.413 46.6632 137.49 46.078 135.734L46 135.5L44 130C42.341 126.35 41.183 122.493 40.5577 118.532L40 115L39.5551 106.992C39.5185 106.333 39.5597 105.672 39.6778 105.022Z" fill="#F39C12"/>
<path d="M63.5 145.5L63.1441 146.212C62.7175 147.065 62.1561 147.844 61.4816 148.518V148.518C60.5072 149.493 59.3195 150.227 58.0123 150.663L57.3332 150.889C56.119 151.294 54.8475 151.5 53.5676 151.5H51.2305C50.7441 151.5 50.2584 151.465 49.7769 151.397L49.0201 151.289C47.6976 151.1 46.4498 150.56 45.4065 149.725L45.1416 149.513C44.7164 149.173 44.3463 148.769 44.0442 148.316V148.316C43.0775 146.866 42.7977 144.984 43.6696 143.475C43.793 143.262 43.9065 143.093 44 143C44.4 142.6 45.1667 141.5 45.5 141V141C46.4521 139.413 46.6632 137.49 46.078 135.734L46 135.5L44 130V130C42.341 126.35 41.183 122.493 40.5577 118.532L40 115L39.5551 106.992C39.5185 106.333 39.5597 105.672 39.6778 105.022L39.7726 104.501C40.6683 99.5741 45.833 96.685 50.5 98.5V98.5L55.3002 100.194C57.7632 101.063 60.2884 101.745 62.8541 102.234V102.234C67.266 103.074 71.7684 103.338 76.2482 103.018L80.9236 102.684C82.6329 102.562 84.317 102.203 85.9275 101.617L96.2249 97.8728C98.4262 97.0723 100.888 97.92 102.129 99.9063V99.9063C102.375 100.3 102.565 100.727 102.692 101.173L103.076 102.516C103.358 103.503 103.537 104.516 103.61 105.54L104 111V111C104 114.656 103.614 118.303 102.848 121.878L102.5 123.5L100 132.5L98.5 136.5V136.5C97.8772 137.746 97.9339 139.223 98.6504 140.417L99 141L99.9846 142.641C100.322 143.203 100.5 143.846 100.5 144.502V144.502C100.5 145.461 100.119 146.381 99.4406 147.059L98.7929 147.707C98.5979 147.902 98.3893 148.083 98.1686 148.249L97.9442 148.417C96.9895 149.133 95.9117 149.668 94.7642 149.996L94.5096 150.069C93.5081 150.355 92.4716 150.5 91.43 150.5H89.0768C88.3598 150.5 87.6438 150.449 86.934 150.348L85.6068 150.158C84.8737 150.053 84.1623 149.831 83.5 149.5V149.5C82.8377 149.169 82.2331 148.733 81.7094 148.209L81.5 148C80.8377 147.338 80.0729 146.786 79.2351 146.368L77.5 145.5M63.5 145.5L64.5645 143.158C65.504 141.091 65.8676 138.809 65.6169 136.552V136.552C65.5391 135.852 65.4027 135.159 65.2092 134.482L64.5 132L63 128.5L58 117L61.5 124.5M63.5 145.5V145.5C68.1143 146.489 72.8857 146.489 77.5 145.5V145.5M77.5 145.5L77.2526 142.531C77.0848 140.518 77.168 138.492 77.5 136.5V136.5L78 133.5L79 130L80.5 126L81 125L84.5 116.5" stroke="#1F485C" stroke-width="2"/>
<path d="M32.8661 116.417L33.7255 115.343C33.9079 115.115 34.1164 114.909 34.3469 114.73C36.3742 113.153 39.3516 114.055 40.1638 116.491L40.5 117.5L41.5 122.5L43 127.5L43.756 129.579C44.2744 131.004 42.9583 132.417 41.5 132L37.5 130.5L32.0784 128.564C31.0923 128.212 30.3475 127.39 30.0935 126.374C30.0314 126.126 30 125.871 30 125.614V124.505C30 123.836 30.0553 123.168 30.1652 122.509L30.1775 122.435C30.3913 121.152 30.7973 119.905 31.3789 118.742C31.7911 117.918 32.2903 117.137 32.8661 116.417Z" fill="#F8F9FA" stroke="#1F485C" stroke-width="2"/>
<path d="M30.5 146H37.3292C41.234 146 44.622 143.304 45.5 139.5C46.1008 137.697 45.5144 135.711 44.0307 134.524L44 134.5L42.1846 133.138C40.7356 132.051 39.139 131.177 37.4431 130.541L37.3229 130.496C36.4424 130.166 35.5367 129.907 34.6146 129.723L34.2655 129.653C32.1122 129.222 29.8928 129.246 27.7491 129.722L27.01 129.887C26.6706 129.962 26.3378 130.065 26.0149 130.194L25.9453 130.222C24.6833 130.727 23.6213 131.631 22.922 132.797C22.6419 133.263 22.4243 133.765 22.2747 134.288L21.7705 136.053C21.591 136.681 21.5 137.331 21.5 137.984C21.5 140.197 22.5419 142.281 24.3123 143.609L25.1 144.2C26.6579 145.368 28.5527 146 30.5 146Z" fill="#F39C12" stroke="#1F485C" stroke-width="2"/>
<path d="M111.295 115.991L110.5 114.901C110.345 114.689 110.166 114.495 109.966 114.325C108.126 112.756 105.28 113.589 104.576 115.903L104.2 117.14L103.267 122.256L101.867 127.372L101.078 129.751C100.628 131.108 101.903 132.404 103.267 131.977L107 130.442L111.922 128.515C112.93 128.12 113.677 127.252 113.918 126.196C113.973 125.958 114 125.714 114 125.469V124.307C114 123.623 113.948 122.939 113.846 122.263L113.827 122.139C113.632 120.859 113.261 119.612 112.724 118.434C112.331 117.573 111.852 116.755 111.295 115.991Z" fill="#F8F9FA" stroke="#1F485C" stroke-width="2"/>
<path d="M114 146H107.171C103.266 146 99.878 143.304 99 139.5C98.3992 137.697 98.9856 135.711 100.469 134.524L100.5 134.5L102.315 133.138C103.764 132.051 105.361 131.177 107.057 130.541L107.177 130.496C108.058 130.166 108.963 129.907 109.885 129.723L110.234 129.653C112.388 129.222 114.607 129.246 116.751 129.722L117.49 129.887C117.829 129.962 118.162 130.065 118.485 130.194L118.555 130.222C119.817 130.727 120.879 131.631 121.578 132.797C121.858 133.263 122.076 133.765 122.225 134.288L122.729 136.053C122.909 136.681 123 137.331 123 137.984C123 140.197 121.958 142.281 120.188 143.609L119.4 144.2C117.842 145.368 115.947 146 114 146Z" fill="#F39C12" stroke="#1F485C" stroke-width="2"/>
<path d="M41.0291 4.88228L42.4017 5.22542C43.1232 5.40579 43.7903 5.75805 44.3461 6.25213C46.3284 8.01417 46.4186 11.0814 44.5432 12.9568L43.0262 14.4738C42.6765 14.8235 42.367 15.2112 42.1035 15.6298L37.7127 22.6033C35.2422 26.527 33.1172 30.6579 31.3616 34.9494L29.5 39.5L25.5 52.1556L22.8823 62.0542C22.6285 63.014 22.5 64.0027 22.5 64.9955V72.1399C22.5 74.5479 20.5479 76.5 18.1399 76.5C17.7156 76.5 17.2935 76.4381 16.8871 76.3161L14.5816 75.6245C13.2005 75.2101 11.883 74.6074 10.6665 73.8332C8.26733 72.3065 6.32821 70.1564 5.05644 67.6129L4 65.5C2.35081 62.2016 1.39447 58.6005 1.18991 54.9184L1 51.5V50.3234C1 43.8017 1.84025 37.307 3.5 31L4.79178 27.6414C5.59213 25.5605 6.71948 23.6206 8.13129 21.8951C9.69804 19.9802 11.5916 18.3579 13.7242 17.1034L19 14L23.321 11.0086C24.7709 10.0048 26.3062 9.1305 27.9093 8.39576L34.1931 5.51567C36.3338 4.53453 38.7446 4.31115 41.0291 4.88228Z" fill="#F8F9FA" stroke="#1F485C" stroke-width="2"/>
<path d="M101.356 4.1762L99.9893 4.54326C99.2711 4.73619 98.6102 5.10004 98.063 5.60374C96.1118 7.40011 96.0752 10.4685 97.9831 12.3109L99.5263 13.8011C99.882 14.1447 100.198 14.5269 100.469 14.9408L104.981 21.8367C107.519 25.7167 109.716 29.8098 111.546 34.07L113.487 38.5874L117.707 51.1713L120.497 61.0227C120.768 61.978 120.914 62.9642 120.931 63.9569L121.056 71.1002C121.098 73.5079 123.084 75.4256 125.491 75.3836C125.916 75.3761 126.336 75.3068 126.741 75.1778L129.034 74.4461C130.407 74.0077 131.714 73.382 132.917 72.5867C135.289 71.0184 137.19 68.8348 138.418 66.2695L139.437 64.1385C141.028 60.8118 141.922 57.1945 142.062 53.5095L142.192 50.0882L142.172 48.9118C142.058 42.3911 141.104 35.9121 139.335 29.635L137.985 26.2994C137.148 24.2328 135.987 22.3129 134.545 20.6123C132.945 18.725 131.024 17.136 128.87 15.919L123.541 12.9081L119.168 9.9925C117.701 9.0142 116.15 8.16683 114.535 7.46018L108.202 4.6902C106.044 3.74657 103.63 3.5653 101.356 4.1762Z" fill="#F8F9FA" stroke="#1F485C" stroke-width="2"/>
<path d="M63.5 36.9993C63.5 43.9028 57.9036 49.4993 51 49.4993C44.0964 49.4993 38.5 43.9028 38.5 36.9993C38.5 30.0957 44.0964 44.5 51 44.5C57.9036 44.5 63.5 30.0957 63.5 36.9993Z" fill="#1F485C"/>
<path d="M106.5 36.8728C106.5 43.7763 100.904 49.3728 94 49.3728C87.0964 49.3728 81.5 43.7763 81.5 36.8728C81.5 29.9693 87.0964 44.3735 94 44.3735C100.904 44.3735 106.5 29.9693 106.5 36.8728Z" fill="#1F485C"/>
<ellipse cx="72" cy="59.5" rx="9.5" ry="7.5" fill="#1F485C"/>
<path d="M90.9532 84.6318C89.4532 89.1318 83.1705 78.1318 72.9532 78.1318C62.7359 78.1318 58 86 54.4532 84.6318C53.5 79.5 62.2359 75.1318 72.4532 75.1318C82.6705 75.1318 90.9532 79.3851 90.9532 84.6318Z" fill="#1F485C"/>
<path d="M71.4115 109.492L71.4821 109.505L71.5534 109.497C75.0466 109.123 77.7178 108.931 79.7205 108.892C81.7358 108.854 83.0309 108.973 83.7975 109.197C84.1806 109.308 84.3817 109.432 84.4796 109.531C84.5582 109.61 84.5797 109.68 84.5718 109.776C84.5618 109.898 84.4981 110.082 84.3339 110.338C84.173 110.589 83.9387 110.874 83.6369 111.192C83.0323 111.83 82.2085 112.55 81.2904 113.341C81.2083 113.412 81.1255 113.484 81.0421 113.555C80.2011 114.28 79.3017 115.054 78.467 115.851C77.5505 116.726 76.6928 117.645 76.062 118.578C75.4341 119.506 74.9996 120.495 74.9996 121.5C74.9996 128.311 72.0709 129.5 71.5001 129.5C70.6494 129.5 69.6845 129.17 68.9109 128.054C68.1188 126.911 67.5 124.905 67.5 121.5C67.5 120.518 67.1375 119.519 66.6058 118.555C66.072 117.587 65.3462 116.616 64.5724 115.683C63.9367 114.916 63.2577 114.162 62.616 113.449C62.4767 113.294 62.3392 113.141 62.2043 112.991C61.4405 112.139 60.764 111.364 60.283 110.685C60.0431 110.346 59.8618 110.045 59.7438 109.781C59.6244 109.514 59.5838 109.317 59.5894 109.177C59.5942 109.055 59.6332 108.963 59.7245 108.875C59.829 108.775 60.0251 108.66 60.3778 108.567C61.0896 108.379 62.2695 108.32 64.0905 108.46C65.8988 108.6 68.2944 108.931 71.4115 109.492Z" fill="#F8F9FA" stroke="#1F485C"/>
<path d="M97 55.5L96.5 54.5C96.088 53.676 94.912 53.676 94.5 54.5L93.5 56.5L92 59L91.8853 59.1911C90.9633 60.7279 90.1656 62.336 89.5 64L89.3032 64.7873C89.1018 65.5927 89 66.4198 89 67.25V67.7192C89 68.2378 89.0636 68.7544 89.1894 69.2575L89.2205 69.3818C89.405 70.1198 89.7351 70.8135 90.1916 71.4221C90.7232 72.131 91.4126 72.7063 92.2051 73.1026L92.3652 73.1826C92.7871 73.3936 93.2309 73.5577 93.6886 73.6721L94.335 73.8337C94.7767 73.9442 95.2302 74 95.6855 74C96.55 74 97.4025 73.7987 98.1757 73.4121L99 73L99.0323 72.9785C99.9941 72.3373 100.772 71.4562 101.289 70.4222C101.429 70.1411 101.551 69.8476 101.65 69.5495C101.88 68.8585 102 68.1287 102 67.4004V67.2579C102 66.7539 101.95 66.2511 101.851 65.7568L101.818 65.5907C101.608 64.5381 101.218 63.5295 100.665 62.609L100 61.5L99 59.5L97.5 56.5L97 55.5Z" fill="#0084FF"/>
<path d="M95.25 71.25L95.2929 71.2929C95.4255 71.4255 95.5 71.6054 95.5 71.7929C95.5 72.1834 95.1834 72.5 94.7929 72.5H94.5C94.1712 72.5 93.8469 72.4234 93.5528 72.2764L93 72L92.7729 71.8865C92.261 71.6305 91.7937 71.2937 91.3889 70.8889L91.1626 70.6626C90.7268 70.2268 90.3986 69.6957 90.2037 69.1111C90.0688 68.7063 90 68.2825 90 67.8559V67.5V66.1343C90 66.0483 90.0342 65.9658 90.095 65.905C90.2732 65.7268 90.5778 65.8111 90.6389 66.0557L91.3644 68.9577C91.4531 69.3126 91.6366 69.6366 91.8952 69.8952L92.1779 70.1779C92.3913 70.3913 92.6376 70.5688 92.9074 70.7037L93.013 70.7565C93.3332 70.9166 93.6864 71 94.0445 71H94.6464C94.8728 71 95.0899 71.0899 95.25 71.25Z" fill="#D9D9D9"/>
<path d="M120.824 120.66L115.12 123.634C114.687 123.86 114.348 124.231 114.162 124.682C113.776 125.619 114.124 126.698 114.986 127.232L119.792 130.215C120.568 130.696 121.513 130.819 122.385 130.551C122.794 130.425 123.173 130.218 123.499 129.942L124.401 129.178C124.817 128.827 125.199 128.438 125.543 128.017L128.201 124.768L130.27 121.664C130.717 120.995 131.081 120.274 131.355 119.517C131.862 118.114 132.05 116.616 131.904 115.131L131.258 108.57C131.239 109.297 131.103 110.017 130.855 110.702L130.747 111.001C130.286 112.275 129.535 113.425 128.554 114.36L126.668 116.156L125.306 117.454C123.969 118.727 122.46 119.806 120.824 120.66Z" fill="#F8F9FA" stroke="#1F485C" stroke-width="2"/>
<path d="M129.509 121.221C126.452 125.817 122.925 131.294 119.571 129.511C113.344 126.2 113.998 127.056 115.41 124.414C118.535 121.625 129.489 118.948 130.396 113.775C131.13 115.862 130.682 119.017 129.509 121.221Z" fill="#F39C12"/>
</svg>
