<svg width="172" height="143" viewBox="0 0 172 143" fill="none" xmlns="http://www.w3.org/2000/svg">
<ellipse cx="18.231" cy="22.748" rx="18.231" ry="22.748" transform="matrix(0.870528 -0.492119 0.507923 0.861403 0 52.9708)" fill="#F39C12"/>
<ellipse cx="18.231" cy="22.748" rx="18.231" ry="22.748" transform="matrix(0.870528 0.492119 -0.507923 0.861403 140.051 35.0271)" fill="#F39C12"/>
<ellipse cx="18.3005" cy="24.7769" rx="18.3005" ry="24.7769" transform="matrix(0.967264 -0.253773 0.263951 0.964536 34.7881 9.63745)" fill="#F39C12"/>
<ellipse cx="18.3005" cy="24.7769" rx="18.3005" ry="24.7769" transform="matrix(0.967264 0.253773 -0.263951 0.964536 98.4521 1.06787)" fill="#F39C12"/>
<path d="M47.7998 89.4489L44.6873 92.4965L41.3486 95.4154C39.4291 97.0934 37.6813 98.9582 36.131 100.982L35.7423 101.49C34.4463 103.182 33.3223 104.999 32.3869 106.914C31.6952 108.33 31.1088 109.795 30.6326 111.297L30.1254 112.898C29.6081 114.53 29.2737 116.215 29.1285 117.921C28.9782 119.687 29.0315 121.464 29.2874 123.217L29.6184 125.486C29.8807 127.284 30.4077 129.032 31.1823 130.676C32.173 132.778 33.5529 134.673 35.2488 136.261L35.5483 136.542C37.038 137.937 38.7272 139.102 40.5602 140L41.8482 140.63C43.2925 141.338 44.805 141.896 46.3624 142.297L47.08 142.482C47.855 142.682 48.6451 142.818 49.4423 142.889C50.2726 142.963 51.1077 142.966 51.9386 142.898L52.1191 142.883C52.9439 142.816 53.7625 142.688 54.5684 142.5L58.0267 141.694L67.142 139.952L77.5912 137.775L80.5462 137.465C82.7195 137.237 84.9114 137.251 87.0817 137.506C88.6078 137.685 90.1176 137.983 91.5973 138.397L92.4869 138.646L99.6012 139.952L105.826 141.694L112.051 142.782L112.714 142.832C114.196 142.944 115.685 142.927 117.165 142.782L119.457 142.294C121.331 141.896 123.148 141.268 124.869 140.426L125.137 140.294C127.364 139.204 129.403 137.724 131.134 135.948C132.479 134.568 133.643 133.001 134.571 131.313C135.706 129.25 136.492 127.014 136.898 124.695L137.05 123.828C137.427 121.674 137.478 119.475 137.201 117.305C137.035 116.007 136.753 114.726 136.357 113.478L135.798 111.715C135.234 109.936 134.509 108.212 133.631 106.565C132.734 104.881 131.682 103.285 130.488 101.797L127.392 97.9387L121.834 92.4965C119.613 90.4677 117.549 88.2746 115.658 85.9359L114.275 84.2244L109.383 77.2584L105.604 71.5985L104.975 70.6755C103.619 68.6835 102.069 66.8309 100.347 65.1449L99.4777 64.294C98.672 63.5051 97.8031 62.7805 96.8825 62.1295C95.1496 60.9041 93.2395 59.9439 91.2219 59.2854C89.6987 58.7883 88.124 58.4656 86.528 58.3235L86.1337 58.2884C84.7395 58.1643 83.3372 58.1592 81.9421 58.273L81.2736 58.3275C79.5656 58.4669 77.8798 58.8059 76.2507 59.3376C74.3374 59.9621 72.513 60.851 70.8409 61.9712C69.714 62.7261 68.6552 63.5862 67.6861 64.5352L64.4741 67.6802L61.3616 71.5985L57.1374 77.2584L52.024 84.2244L47.7998 89.4489Z" fill="#F39C12"/>
</svg>
